<?xml version="1.0" encoding="UTF-8" standalone="no"?>
<svg xmlns="http://www.w3.org/2000/svg" width="64" height="64" viewBox="0 0 64 64">
  <!-- Background -->
  <rect x="2" y="2" width="60" height="60" rx="4" ry="4" fill="#f0f0f0" stroke="#404040" stroke-width="2" />

  <!-- Boxes -->
  <rect x="10" y="12" width="18" height="12" rx="2" ry="2" fill="#c0e0ff" stroke="#4080c0" stroke-width="1.5" />
  <rect x="36" y="12" width="18" height="12" rx="2" ry="2" fill="#c0e0ff" stroke="#4080c0" stroke-width="1.5" />
  <rect x="10" y="40" width="18" height="12" rx="2" ry="2" fill="#c0e0ff" stroke="#4080c0" stroke-width="1.5" />
  <rect x="36" y="40" width="18" height="12" rx="2" ry="2" fill="#c0e0ff" stroke="#4080c0" stroke-width="1.5" />

  <!-- Connecting lines -->
  <line x1="28" y1="18" x2="36" y2="18" stroke="#4080c0" stroke-width="1.5" />
  <line x1="28" y1="46" x2="36" y2="46" stroke="#4080c0" stroke-width="1.5" />
  <line x1="19" y1="24" x2="19" y2="40" stroke="#4080c0" stroke-width="1.5" />
  <line x1="45" y1="24" x2="45" y2="40" stroke="#4080c0" stroke-width="1.5" />

  <!-- Flow dots -->
  <circle cx="32" cy="18" r="3" fill="#ff8000" stroke="#804000" stroke-width="1" />
  <circle cx="19" cy="32" r="3" fill="#00c000" stroke="#006000" stroke-width="1" />
  <circle cx="45" cy="32" r="3" fill="#c00000" stroke="#600000" stroke-width="1" />
  <circle cx="32" cy="46" r="3" fill="#0080ff" stroke="#004080" stroke-width="1" />
</svg>
